<svg id="Layer_1" data-name="Layer 1" xmlns="http://www.w3.org/2000/svg" viewBox="0 0 3723.58 3723.58">
<title>uvlogo2Artboard 1</title><rect id="svgItem" width="3723.58" height="3723.58"/><path d="M874.86,2937V2814h47.33v121.72c0,35.07,17.52,53.19,46.4,53.19s46.43-17.52,46.43-51.64V2814h47.33v121.42c0,65.18-36.57,97.14-94.36,97.14S874.86,3000.3,874.86,2937Z" fill="#fff"/><path d="M1086.82,2814h52.57c27.36,0,48.56,7.68,62.7,21.83,12,12,18.45,28.91,18.45,49.18v.63c0,34.72-18.75,56.54-46.1,66.7l52.56,76.84h-55.34l-46.1-68.86h-38.72v-41.8h49.49c23.05,0,36.27-12.29,36.27-30.44v-.63c0-20.27-14.14-30.74-37.19-30.74h-48.56Z" fill="#fff"/><path d="M1244.94,2814h99.89c24.6,0,44,6.76,56.27,19.07,9.81,9.84,14.74,21.83,14.74,36.57v.63c0,24.28-12.92,37.79-28.28,46.4,24.9,9.54,40.27,24,40.27,52.86v.63c0,39.35-32,59-80.54,59H1244.94Zm123.87,63.62c0-14.14-11.06-22.13-31-22.13H1291V2901h43.65c20.9,0,34.11-6.76,34.11-22.75Zm-23.05,62.72H1291v47.33h56.24c20.9,0,33.51-7.38,33.51-23.35v-.63C1380.79,2949.27,1370,2940.36,1345.75,2940.36Z" fill="#fff"/><path d="M1522.31,2812.48H1566l92.21,216.7h-49.48L1589,2980.93h-91l-19.67,48.26H1430.1Zm49.81,126.65-28.58-69.78-28.61,69.78Z" fill="#fff"/><path d="M1673.06,2814h43.65l100.82,132.48V2814h46.73v215.18H1824L1719.76,2892.4v136.78h-46.7Z" fill="#fff"/><path d="M1885.26,2814h17.85l84.22,198,84.52-198h16.92l-94.69,216.7h-14.14Z" fill="#fff"/><path d="M2118.08,2814h16v215.18h-16Z" fill="#fff"/><path d="M2167.91,2997.82l10.44-12c23.68,21.83,45.5,32,77.16,32,32.26,0,54.41-18.15,54.41-42.75v-.6c0-22.75-12-36-60.87-45.8-51.64-10.46-72.56-28-72.56-60.55v-.63c0-32,29.21-56.57,69.18-56.57,31.34,0,51.94,8.61,73.76,26.13l-10.14,12.61c-20.3-17.52-40.57-24.28-64.25-24.28-31.66,0-52.56,18.12-52.56,40.57v.6c0,22.75,11.69,36.59,62.7,47,49.81,10.16,70.71,28,70.71,59.34v.6c0,34.74-29.81,58.72-71.31,58.72C2220.15,3032.26,2193.72,3020.87,2167.91,2997.82Z" fill="#fff"/><path d="M2362.26,2814h16v215.18h-16Z" fill="#fff"/><path d="M2416.43,2922.21v-.6c0-58.72,43.33-111.28,108.5-111.28s107.9,51.94,107.9,110.65v.63c0,58.69-43.35,111.25-108.53,111.25S2416.43,2980.93,2416.43,2922.21Zm199.78,0v-.6c0-53.19-38.72-96.84-91.91-96.84S2433,2867.8,2433,2921v.63c0,53.16,38.72,96.81,91.91,96.81S2616.21,2975.4,2616.21,2922.21Z" fill="#fff"/><path d="M2668.9,2814H2684l148.47,187.19V2814h15.37v215.18h-12L2684.26,2838v191.2H2668.9Z" fill="#fff"/><path d="M1333.6,3085.87h71.63c67.63,0,114.33,46.43,114.33,107v.63c0,60.55-46.7,107.58-114.33,107.58H1333.6Zm16,14.77v185.64h55.64c59.94,0,97.74-40.87,97.74-92.21v-.6c0-51-37.79-92.83-97.74-92.83Z" fill="#fff"/><path d="M1555.66,3085.87h153.08v14.77H1571.66v84.52h123.27v14.74H1571.66v86.38h138.64V3301H1555.66Z" fill="#fff"/><path d="M1729.46,3269.68l10.44-12c23.68,21.83,45.5,32,77.16,32,32.26,0,54.41-18.15,54.41-42.75v-.6c0-22.75-12-36-60.87-45.8-51.64-10.46-72.56-28-72.56-60.55v-.63c0-32,29.21-56.57,69.18-56.57,31.34,0,51.94,8.61,73.76,26.13l-10.14,12.61c-20.3-17.52-40.57-24.28-64.25-24.28-31.66,0-52.56,18.12-52.56,40.57v.6c0,22.75,11.69,36.59,62.7,47,49.81,10.16,70.71,28,70.71,59.34v.6c0,34.74-29.81,58.72-71.31,58.72C1781.7,3304.12,1755.27,3292.73,1729.46,3269.68Z" fill="#fff"/><path d="M1923.82,3085.87h16V3301h-16Z" fill="#fff"/><path d="M1978,3194.07v-.6c0-58.12,42.1-111.28,106.35-111.28,35,0,57.17,10.44,78.69,28.28l-10.46,12c-16.89-14.77-36.57-25.83-69.16-25.83-52.26,0-88.83,44.25-88.83,96.21v.63c0,55.61,34.74,97.11,92.21,97.11,27.36,0,52.86-11.36,68.55-24.58v-61.8h-71.93v-14.74h87.3v83c-19.37,17.22-49.48,32.26-84.52,32.26C2018.2,3304.72,1978,3254.64,1978,3194.07Z" fill="#fff"/><path d="M2210.15,3085.87h15.07l148.47,187.19V3085.87h15.37V3301h-12l-151.55-191.2V3301h-15.37Z" fill="#fff"/><rect x="874.86" y="3181.67" width="359.67" height="23.57" fill="#fff"/><rect x="2489.06" y="3181.67" width="359.67" height="23.57" fill="#fff"/><polygon points="1018.75 1691.49 1050.22 1788.34 1152.06 1788.34 1069.67 1848.2 1101.14 1945.05 1018.75 1885.19 936.37 1945.05 967.84 1848.2 885.45 1788.34 987.28 1788.34 1018.75 1691.49" fill="#fff"/><polygon points="2709.8 1691.49 2741.27 1788.34 2843.11 1788.34 2760.72 1848.2 2792.19 1945.05 2709.8 1885.19 2627.42 1945.05 2658.89 1848.2 2576.5 1788.34 2678.33 1788.34 2709.8 1691.49" fill="#fff"/><path d="M2665.13,1289.17c-14.51-145.05-145.94-389.27-184.42-435.15-26.94-32.12-140.91-87-192.71-87-196.69,33.07-194.53,419.94-188.8,542.9-129.06-63.61-188.89-72.29-235.14-72.5l-6.26,78.27,86.94-41.85a2,2,0,0,1,2.68,2.74l-109.84,285.19a3.38,3.38,0,0,1-6.49-1.76L1864.74,1354a2,2,0,0,0-2.74-2.47l-89.87,60.79a2,2,0,0,1-2.87-2.54l88-172.39c-45.71.61-105.54,10.3-231,72,8-46.76,15.38-116.22,11.06-202.63C1629.05,941,1484,613.64,1169,418.86c0,0-16.58,306.68,0,410.29s101.6,424.78,363.7,529.43h0q-25.77,14.26-54.39,30.81c24.55,42.7,65.57,131.86,92.24,283.75,79.09-26,169.68-37.46,195.23,52.57,18,73.22-41.44,196.16-113.28,214.12s-146.43,2.76-174.06-67.69c-27.05-69-58-139.27,53.55-185-25.15-147.21-64.4-233.94-87.25-274.74-57.6,49.39-45.74,99.84-45.74,113,0,14.51,20.72,85-16.58,124.33-29,35.23-53.88,72.53-10.36,178.21,24.87,53.88,19.27,95.32-23.52,128.47-9.63,18.65-34.5,35.23,62.89,132.62,74.6,60.09,88.85,52.05,130.3,39.62s138.83-60.47,136.76,7.06c-4.14,55.1-41.19,141.19-24.62,164.68s49.73,49.73,89.79,49.73c0,0,6.91,142.29,24.87,167.15,14.36,19.89,41.1,40.66,63.24,51.71a10.75,10.75,0,0,0,15.5-9.67V2395.7s1.63-7.6,15-7.6,15,7.6,15,7.6v163.61a10.75,10.75,0,0,0,15.5,9.67c22.14-11.05,48.88-31.83,63.24-51.71,18-24.87,24.87-167.15,24.87-167.15,40.06,0,73.22-26.25,89.79-49.73s-20.47-109.58-24.62-164.68c-2.07-67.54,95.32-19.5,136.76-7.06s55.7,20.47,130.3-39.62c97.39-97.39,72.53-114,62.89-132.62-42.79-33.15-48.39-74.6-23.52-128.47,43.52-105.68,18.65-143-10.36-178.21-37.3-39.37-16.58-109.82-16.58-124.33,0-13.12,11.86-63.57-45.74-113-22.73,40.59-61.69,126.66-86.85,272.5,118.17,45.62,86.62,117.09,59.13,187.21-27.63,70.45-102.23,85.65-174.06,67.69s-131.24-140.91-113.28-214.12c24.94-87.89,111.87-79,189.58-54.38,26.68-150.77,67.47-239.39,91.92-281.93-8.76-5.06-17.37-10-25.74-14.75C2243,1345,2282.3,1293.2,2327.37,1227c-93.25-205.14-62.16-327.46-62.16-327.46s35.23,431.07,389.57,621.71C2654.77,1521.25,2676.89,1406.77,2665.13,1289.17Zm-725.7,701.77c-16.58,35.92-54.82,8.29-77.14-19.34-22.32,27.63-60.56,55.26-77.14,19.34-23.48-60.78,77.14-145.05,77.14-145.05S1962.92,1930.16,1939.43,1990.94Z" fill="#fff"/><path d="M1861.79,504.13c-142.3,0-280.71,26.66-411.59,79.11q16.54,18.91,31.89,38.07c121-46.48,248.63-70,379.7-70,584.52,0,1060.06,475.55,1060.06,1060.07S2446.31,2671.4,1861.79,2671.4,801.73,2195.86,801.73,1611.34c0-265.93,98.89-520.26,278.46-716.14,11.63-12.68,23.63-25,35.87-37.14-1.78-9.08-2.94-15.87-3.58-19.86-1.74-10.86-3.14-23.69-4.25-37.95q-32.66,30.3-62.79,63.1c-187.56,204.59-290.85,470.24-290.85,748,0,610.51,496.69,1107.2,1107.2,1107.2S2969,2221.85,2969,1611.34,2472.3,504.13,1861.79,504.13Z" fill="#fff"/><path d="M2665.13,1289.17c-14.51-145.05-145.94-389.27-184.42-435.15-26.94-32.12-140.91-87-192.71-87-196.69,33.07-194.53,419.94-188.8,542.9-129.06-63.61-188.89-72.29-235.14-72.5l-6.26,78.27,86.94-41.85a2,2,0,0,1,2.68,2.74l-109.84,285.19a3.38,3.38,0,0,1-6.49-1.76L1864.74,1354a2,2,0,0,0-2.74-2.47l-89.87,60.79a2,2,0,0,1-2.87-2.54l88-172.39c-45.71.61-105.54,10.3-231,72,8-46.76,15.38-116.22,11.06-202.63C1629.05,941,1484,613.64,1169,418.86c0,0-16.58,306.68,0,410.29s101.6,424.78,363.7,529.43h0q-25.77,14.26-54.39,30.81c24.55,42.7,65.57,131.86,92.24,283.75,79.09-26,169.68-37.46,195.23,52.57,18,73.22-41.44,196.16-113.28,214.12s-146.43,2.76-174.06-67.69c-27.05-69-58-139.27,53.55-185-25.15-147.21-64.4-233.94-87.25-274.74-57.6,49.39-45.74,99.84-45.74,113,0,14.51,20.72,85-16.58,124.33-29,35.23-53.88,72.53-10.36,178.21,24.87,53.88,19.27,95.32-23.52,128.47-9.63,18.65-34.5,35.23,62.89,132.62,74.6,60.09,88.85,52.05,130.3,39.62s138.83-60.47,136.76,7.06c-4.14,55.1-41.19,141.19-24.62,164.68s49.73,49.73,89.79,49.73c0,0,6.91,142.29,24.87,167.15,14.36,19.89,41.1,40.66,63.24,51.71a10.75,10.75,0,0,0,15.5-9.67V2395.7s1.63-7.6,15-7.6,15,7.6,15,7.6v163.61a10.75,10.75,0,0,0,15.5,9.67c22.14-11.05,48.88-31.83,63.24-51.71,18-24.87,24.87-167.15,24.87-167.15,40.06,0,73.22-26.25,89.79-49.73s-20.47-109.58-24.62-164.68c-2.07-67.54,95.32-19.5,136.76-7.06s55.7,20.47,130.3-39.62c97.39-97.39,72.53-114,62.89-132.62-42.79-33.15-48.39-74.6-23.52-128.47,43.52-105.68,18.65-143-10.36-178.21-37.3-39.37-16.58-109.82-16.58-124.33,0-13.12,11.86-63.57-45.74-113-22.73,40.59-61.69,126.66-86.85,272.5,118.17,45.62,86.62,117.09,59.13,187.21-27.63,70.45-102.23,85.65-174.06,67.69s-131.24-140.91-113.28-214.12c24.94-87.89,111.87-79,189.58-54.38,26.68-150.77,67.47-239.39,91.92-281.93-8.76-5.06-17.37-10-25.74-14.75C2243,1345,2282.3,1293.2,2327.37,1227c-93.25-205.14-62.16-327.46-62.16-327.46s35.23,431.07,389.57,621.71C2654.77,1521.25,2676.89,1406.77,2665.13,1289.17Zm-725.7,701.77c-16.58,35.92-54.82,8.29-77.14-19.34-22.32,27.63-60.56,55.26-77.14,19.34-23.48-60.78,77.14-145.05,77.14-145.05S1962.92,1930.16,1939.43,1990.94Z" fill="#fff"/></svg>